<?xml version="1.0" standalone="no"?>
<!DOCTYPE svg PUBLIC "-//W3C//DTD SVG 20010904//EN"
 "http://www.w3.org/TR/2001/REC-SVG-20010904/DTD/svg10.dtd">
<svg version="1.0" xmlns="http://www.w3.org/2000/svg"
 width="461.000000pt" height="512.000000pt" viewBox="0 0 461.000000 512.000000"
 preserveAspectRatio="xMidYMid meet">

<g transform="translate(0.000000,512.000000) scale(0.100000,-0.100000)"
fill="#000000" stroke="none">
<path d="M2255 4843 c-67 -8 -146 -38 -260 -97 -161 -84 -507 -293 -882 -532
-169 -109 -375 -240 -458 -292 -82 -52 -174 -118 -204 -146 -70 -67 -126 -154
-152 -235 -20 -64 -21 -93 -26 -816 -2 -412 0 -858 4 -990 9 -230 10 -242 35
-290 15 -27 46 -69 70 -92 38 -37 715 -494 1118 -756 408 -264 553 -319 845
-320 202 -1 313 29 475 127 58 35 242 139 410 231 641 352 707 399 785 561 97
199 79 445 -44 621 -57 81 -96 115 -281 245 -542 380 -700 458 -925 458 -174
0 -272 -36 -571 -211 -417 -243 -454 -277 -454 -417 0 -93 34 -149 133 -221
155 -111 298 -201 339 -211 85 -23 160 12 318 149 106 93 182 141 221 141 16
0 48 -16 76 -37 67 -51 178 -151 173 -156 -188 -145 -352 -252 -497 -324 -182
-91 -204 -87 -508 96 -93 56 -297 182 -452 279 -232 145 -284 181 -293 206
-29 83 2 144 111 223 198 142 1197 796 1309 857 151 82 196 63 778 -321 295
-194 467 -298 527 -320 96 -35 205 -8 265 65 73 89 91 214 88 642 -2 455 -14
558 -80 683 -65 121 -108 152 -956 674 -495 306 -803 490 -839 502 -60 20
-145 30 -198 24z m130 -148 c46 -12 180 -90 605 -352 300 -185 628 -388 730
-451 321 -197 363 -231 410 -322 52 -101 54 -133 55 -605 0 -487 -2 -504 -61
-563 -31 -31 -38 -33 -72 -27 -52 9 -202 98 -512 303 -643 424 -711 450 -920
344 -138 -71 -1324 -851 -1410 -929 -86 -77 -122 -182 -100 -288 19 -91 46
-117 276 -262 515 -324 751 -462 832 -488 39 -13 75 -16 138 -13 81 4 92 8
202 64 180 92 434 260 539 358 43 39 58 85 43 131 -20 62 -245 255 -329 284
-97 32 -205 -17 -381 -175 -83 -74 -144 -114 -174 -114 -23 0 -344 217 -362
245 -9 14 -16 41 -16 61 0 42 23 70 102 124 79 54 464 278 524 306 123 56 283
72 405 40 90 -23 216 -91 425 -229 264 -174 436 -299 487 -354 131 -140 157
-371 62 -545 -63 -115 -133 -161 -833 -546 -140 -77 -292 -162 -338 -190 -126
-77 -284 -104 -479 -83 -191 22 -280 57 -518 204 -162 101 -1201 792 -1233
821 -13 12 -34 39 -45 61 l-22 40 0 965 0 965 32 66 c41 82 97 147 165 190 29
18 179 114 333 213 530 340 760 482 1008 623 252 143 308 160 432 128z"/>
<path d="M1425 3500 c-53 -12 -94 -40 -123 -82 -22 -34 -27 -53 -27 -103 0
-78 33 -132 97 -164 177 -85 352 106 244 269 -40 60 -124 96 -191 80z"/>
</g>
</svg>
